<?xml version="1.0" encoding="UTF-8"?>
<svg version="1.1" viewBox="0 0 93 66" xmlns="http://www.w3.org/2000/svg" xmlns:xlink="http://www.w3.org/1999/xlink">
<title>ic_save</title>
<desc>Created with Sketch.</desc>
<defs>
<polygon id="a" points="0.25337 0.017226 44.251 0.017226 44.251 41.557 0.25337 41.557"/>
</defs>
<g fill="none" fill-rule="evenodd">
<g transform="translate(-700 -3156)">
<g transform="translate(112 3040)">
<g transform="translate(586 112)">
<g transform="translate(2 4)">
<path d="m46.518 65.607c-6.2744-0.18741-10.97-2.0941-15.247-4.9097-11.756-7.738-21.266-17.652-27.924-30.106-2.6739-5.0024-4.1437-10.38-2.8963-16.176 0.48233-2.2412 1.6979-3.8506 3.719-4.9168 1.5284-0.80636 3.0062-1.708 4.5197-2.5432 1.3843-0.76388 2.6338-0.4951 3.4731 0.80249 2.6611 4.1129 5.2768 8.2563 7.8506 12.424 0.77992 1.2628 0.43154 2.4669-0.7223 3.3662-1.409 1.098-2.8646 2.136-4.2973 3.2037-1.3668 1.0187-1.6587 2.2465-0.81824 3.7734 4.6305 8.4099 11.014 15.156 19.184 20.187 1.8536 1.1411 2.749 0.92308 4.1729-0.76299 1.041-1.2328 2.016-2.5221 3.0647-3.7481 1.1411-1.3332 2.3567-1.5209 3.8093-0.51559 3.8387 2.6564 7.6623 5.3353 11.456 8.0558 1.6074 1.1527 1.7672 2.2765 0.72676 4.0187-0.56133 0.93971-1.2723 1.8025-1.7389 2.7844-1.8993 3.9958-5.1699 5.3463-8.3317 5.0624" fill="#F9C533"/>
<g transform="translate(48.411 8.0258)">
<mask id="b" fill="white">
<use xlink:href="#a"/>
</mask>
<path d="m38.411 0.017226h-32.318c-3.2251 0-5.8396 2.6145-5.8396 5.8402v21.266c0 3.2248 2.6145 5.8396 5.8396 5.8396h19.93l6.8271 8.5946v-8.5946h5.5616c3.2248 0 5.8396-2.6148 5.8396-5.8396v-21.266c0-3.2257-2.6148-5.8402-5.8396-5.8402" fill="#B8C6FF" mask="url(#b)"/>
</g>
<path d="m29.879 2.673e-4h32.317c3.226 0 5.8405 2.6145 5.8405 5.8402v21.265c0 3.2266-2.6145 5.8411-5.8405 5.8411h-19.93l-6.8268 8.5946v-8.5946h-5.561c-3.2248 0-5.8396-2.6145-5.8396-5.8411v-21.265c0-3.2257 2.6148-5.8402 5.8396-5.8402" fill="#D1D3D4"/>
<path d="m29.879 2.673e-4h32.317c3.226 0 5.8405 2.6145 5.8405 5.8402v21.265c0 3.2266-2.6145 5.8411-5.8405 5.8411h-19.93l-6.8268 8.5946v-8.5946h-5.561c-3.2248 0-5.8396-2.6145-5.8396-5.8411v-21.265c0-3.2257 2.6148-5.8402 5.8396-5.8402" fill="#6E83FF"/>
<path d="m58.39 7.284h-24.881c-0.43926 0-0.79596-0.35551-0.79596-0.79596 0-0.44015 0.3567-0.79596 0.79596-0.79596h24.881c0.44045 0 0.79596 0.35581 0.79596 0.79596 0 0.44045-0.35551 0.79596-0.79596 0.79596" fill="#fff"/>
<path d="m58.39 12.588h-24.881c-0.43926 0-0.79596-0.35551-0.79596-0.79596 0-0.44015 0.3567-0.79596 0.79596-0.79596h24.881c0.44045 0 0.79596 0.35581 0.79596 0.79596 0 0.44045-0.35551 0.79596-0.79596 0.79596" fill="#fff"/>
<path d="m58.39 17.892h-24.881c-0.43926 0-0.79596-0.35551-0.79596-0.79596 0-0.44045 0.3567-0.79596 0.79596-0.79596h24.881c0.44045 0 0.79596 0.35551 0.79596 0.79596 0 0.44045-0.35551 0.79596-0.79596 0.79596" fill="#fff"/>
</g>
</g>
</g>
</g>
</g>
</svg>
