<?xml version="1.0" encoding="UTF-8"?>
<svg version="1.1" viewBox="0 0 23 22" xmlns="http://www.w3.org/2000/svg">
<title>noun_quickly_2711850</title>
<desc>Created with Sketch.</desc>
<g fill="none" fill-rule="evenodd">
<g transform="translate(0 1)">
<path id="a" d="m16.625 7.4935-3.362 3.362c-0.12641 0.12526-0.17613 0.30858-0.13034 0.48054s0.1801 0.30628 0.35207 0.35207c0.17196 0.045798 0.35528-0.003921 0.48054-0.13033l3.362-3.362c0.12564-0.12541 0.17478-0.30835 0.12889-0.47984-0.045892-0.17149-0.17983-0.30543-0.35132-0.35133-0.17148-0.045896-0.35443 0.0032398-0.47984 0.12888z"/>
<path d="m19.778 5.043c-3.4061-3.3994-8.9213-3.3994-12.327 0-0.30568 0.30609-0.58867 0.63403-0.84673 0.98121l-7.4449e-4 0.0010792c-0.065863-0.031539-0.1379-0.048069-0.21093-0.048398h-4.5822c-0.27458 7.1007e-4 -0.49679 0.2235-0.49679 0.49807 0 0.27458 0.22221 0.49736 0.49679 0.49807h4.1838c-0.6376 1.1475-1.0063 2.4248-1.0783 3.7356h-4.2511c-0.17825-4.61e-4 -0.34316 0.09437-0.43242 0.24866-0.089259 0.15429-0.089259 0.34452 0 0.49882 0.089259 0.15429 0.25417 0.24912 0.43242 0.24866h4.2511c0.072026 1.3108 0.44074 2.5881 1.0783 3.7356h-4.1838c-0.27458 7.101e-4 -0.49679 0.2235-0.49679 0.49807s0.22221 0.49736 0.49679 0.49807h4.5823c0.073024-3.295e-4 0.14507-0.016859 0.21093-0.048397l7.4448e-4 0.0010793c0.25806 0.34718 0.54106 0.67511 0.84673 0.98121 3.4041 3.4041 8.9232 3.4041 12.327 0 3.4041-3.4041 3.4041-8.9232 0-12.327l-5e-6 8.33e-6zm-2.4505 3.1528-3.362 3.362c-0.19398 0.19363-0.50816 0.19348-0.70196-3.255e-4 -0.1938-0.19381-0.19394-0.50798-3.106e-4 -0.70196l3.362-3.362c0.12541-0.12564 0.30835-0.17477 0.47984-0.12888 0.17148 0.045896 0.30543 0.17984 0.35132 0.35133 0.045892 0.17149-0.0032474 0.35443-0.12889 0.47984z" fill="#6B7AFE" fill-rule="nonzero"/>
<path d="m11.124 0.99615h4.9807c0.27458-7.1175e-4 0.49679-0.2235 0.49679-0.49807s-0.22221-0.49736-0.49679-0.49807h-4.9807c-0.17825-4.593e-4 -0.34316 0.094372-0.43242 0.24867-0.089259 0.15429-0.089259 0.34452 0 0.49882 0.089259 0.15429 0.25417 0.24912 0.43242 0.24867z" fill="#6B7AFE" fill-rule="nonzero"/>
</g>
</g>
</svg>
