<?xml version="1.0" encoding="UTF-8"?>
<svg version="1.1" viewBox="0 0 82 57" xmlns="http://www.w3.org/2000/svg" xmlns:xlink="http://www.w3.org/1999/xlink">
<title>ic_highestrated</title>
<desc>Created with Sketch.</desc>
<defs>
<polygon id="d" points="1.4591e-4 0.26164 81.903 0.26164 81.903 55.391 1.4591e-4 55.391"/>
<polygon id="c" points="0 0.25416 15.926 0.25416 15.926 16.18 0 16.18"/>
<polygon id="b" points="0.093101 0.25416 16.019 0.25416 16.019 16.18 0.093101 16.18"/>
<polygon id="a" points="0.64975 0.25416 16.575 0.25416 16.575 16.18 0.64975 16.18"/>
</defs>
<g fill="none" fill-rule="evenodd">
<g transform="translate(-700 -3309)">
<g transform="translate(112 3040)">
<g transform="translate(586 265)">
<rect width="96" height="96" fill="#fff" fill-opacity="0"/>
<g transform="translate(2 4.5)">
<g id="m" transform="translate(0 .14815)">
<mask id="h" fill="white">
<use xlink:href="#d"/>
</mask>
<path id="n" d="m77.922 0.26149h-73.94c-2.1988 0-3.9812 1.7996-3.9812 4.02v47.09c0 2.2201 1.7824 4.0197 3.9812 4.0197h73.94c2.1988 0 3.9815-1.7996 3.9815-4.0197v-47.09c0-2.2204-1.7827-4.02-3.9815-4.02" fill="#6B7AFE" fill-opacity=".54" mask="url(#h)"/>
</g>
<path id="q" d="m18.796 5.1481h-2.5927c-1.2169 0-2.2036 0.98675-2.2036 2.2036v2.5924c0 1.2175 0.98675 2.2039 2.2036 2.2039h2.5927c1.2172 0 2.2036-0.98645 2.2036-2.2039v-2.5924c0-1.2169-0.98645-2.2036-2.2036-2.2036" fill="#6B7AFE"/>
<path d="m42.796 5.1481h-2.5925c-1.2172 0-2.2037 0.98675-2.2037 2.2036v2.5924c0 1.2175 0.98649 2.2039 2.2037 2.2039h2.5925c1.2172 0 2.2037-0.98645 2.2037-2.2039v-2.5924c0-1.2169-0.98649-2.2036-2.2037-2.2036" fill="#6B7AFE"/>
<path d="m65.796 5.1481h-2.5927c-1.2169 0-2.2036 0.98675-2.2036 2.2036v2.5924c0 1.2175 0.98675 2.2039 2.2036 2.2039h2.5927c1.2169 0 2.2036-0.98645 2.2036-2.2039v-2.5924c0-1.2169-0.98675-2.2036-2.2036-2.2036" fill="#6B7AFE"/>
<path id="k" d="m26.25 22.148h-17.5c-0.96668 0-1.7502 0.8955-1.7502 2 0 1.1045 0.78352 2 1.7502 2h17.5c0.96638 0 1.7502-0.8955 1.7502-2 0-1.1045-0.78382-2-1.7502-2" fill="#fff"/>
<path id="j" d="m26.25 15.148h-17.5c-0.96668 0-1.7502 0.89543-1.7502 2.0002 0 1.1044 0.78352 1.9998 1.7502 1.9998h17.5c0.96638 0 1.7502-0.89543 1.7502-1.9998 0-1.1047-0.78382-2.0002-1.7502-2.0002" fill="#fff"/>
<path id="i" d="m49.25 22.148h-17.5c-0.96639 0-1.7499 0.8955-1.7499 2 0 1.1045 0.78353 2 1.7499 2h17.5c0.96639 0 1.7499-0.8955 1.7499-2 0-1.1045-0.78353-2-1.7499-2" fill="#fff"/>
<path id="l" d="m49.25 15.148h-17.5c-0.96639 0-1.7499 0.89543-1.7499 2.0002 0 1.1044 0.78353 1.9998 1.7499 1.9998h17.5c0.96639 0 1.7499-0.89543 1.7499-1.9998 0-1.1047-0.78353-2.0002-1.7499-2.0002" fill="#fff"/>
<path id="p" d="m73.25 22.148h-17.5c-0.96669 0-1.7502 0.8955-1.7502 2 0 1.1045 0.78353 2 1.7502 2h17.5c0.96639 0 1.7499-0.8955 1.7499-2 0-1.1045-0.78353-2-1.7499-2" fill="#fff"/>
<path id="o" d="m55.75 19.148h17.5c0.96669 0 1.7499-0.89543 1.7499-2.0002 0-1.1044-0.78323-1.9998-1.7499-1.9998h-17.5c-0.96639 0-1.7502 0.89543-1.7502 1.9998 0 1.1047 0.78383 2.0002 1.7502 2.0002" fill="#fff"/>
<path d="m76.475 29.148h-69.949c-1.3946 0-2.5254 1.0422-2.5254 2.3279v17.344c0 1.2857 1.1308 2.3282 2.5254 2.3282h69.949c1.3946 0 2.5254-1.0425 2.5254-2.3282v-17.344c0-1.2857-1.1308-2.3279-2.5254-2.3279" fill="#FAFAFC" fill-opacity=".5"/>
<g transform="translate(11 31.148)">
<g transform="translate(0 .42007)">
<mask id="g" fill="white">
<use xlink:href="#c"/>
</mask>
<path d="m15.926 8.2166c0 4.3975-3.5656 7.9631-7.9631 7.9631-4.3975 0-7.9631-3.5656-7.9631-7.9631 0-4.3969 3.5656-7.9631 7.9631-7.9631 4.3975 0 7.9631 3.5663 7.9631 7.9631" fill="#A0C065" mask="url(#g)"/>
</g>
<g transform="translate(22.247 .42007)">
<mask id="f" fill="white">
<use xlink:href="#b"/>
</mask>
<path d="m16.019 8.2166c0 4.3975-3.5649 7.9631-7.9631 7.9631-4.3975 0-7.9625-3.5656-7.9625-7.9631 0-4.3969 3.5649-7.9631 7.9625-7.9631 4.3982 0 7.9631 3.5663 7.9631 7.9631" fill="#F1C45E" mask="url(#f)"/>
</g>
<g transform="translate(43.146 .42007)">
<mask id="e" fill="white">
<use xlink:href="#a"/>
</mask>
<path d="m16.575 8.2166c0 4.3975-3.5649 7.9631-7.9631 7.9631-4.3975 0-7.9625-3.5656-7.9625-7.9631 0-4.3969 3.5649-7.9631 7.9625-7.9631 4.3982 0 7.9631 3.5663 7.9631 7.9631" fill="#E08F82" mask="url(#e)"/>
</g>
<path d="m5.2437 6.7281c0 0.60067-0.48607 1.0861-1.0861 1.0861s-1.0861-0.48539-1.0861-1.0861c0-0.6 0.48607-1.0854 1.0861-1.0854s1.0861 0.48539 1.0861 1.0854" fill="#5A8435"/>
<path d="m11.902 6.7281c0 0.60067-0.48607 1.0861-1.0861 1.0861-0.59933 0-1.0861-0.48539-1.0861-1.0861 0-0.6 0.48674-1.0854 1.0861-1.0854 0.6 0 1.0861 0.48539 1.0861 1.0854" fill="#5A8435"/>
<path d="m28.06 6.7281c0 0.60067-0.48607 1.0861-1.0861 1.0861s-1.0861-0.48539-1.0861-1.0861c0-0.6 0.48607-1.0854 1.0861-1.0854s1.0861 0.48539 1.0861 1.0854" fill="#6E553F"/>
<path d="m34.718 6.7281c0 0.60067-0.48607 1.0861-1.0861 1.0861-0.59933 0-1.0861-0.48539-1.0861-1.0861 0-0.6 0.48674-1.0854 1.0861-1.0854 0.6 0 1.0861 0.48539 1.0861 1.0854" fill="#6E553F"/>
<path d="m49.771 6.7281c0 0.60067-0.48607 1.0861-1.0861 1.0861s-1.0861-0.48539-1.0861-1.0861c0-0.6 0.48607-1.0854 1.0861-1.0854s1.0861 0.48539 1.0861 1.0854" fill="#A6423F"/>
<path d="m56.429 6.7281c0 0.60067-0.48607 1.0861-1.0861 1.0861-0.59933 0-1.0861-0.48539-1.0861-1.0861 0-0.6 0.48674-1.0854 1.0861-1.0854 0.6 0 1.0861 0.48539 1.0861 1.0854" fill="#A6423F"/>
<path d="m4.6387 11.35s3.3243 4.5276 6.207 0" stroke="#5A8435" stroke-width="2"/>
<line x1="27.455" x2="33.662" y1="11.35" y2="11.35" stroke="#6E553F" stroke-width="2"/>
<path d="m48.911 13.363s3.3243-4.5276 6.207 0" stroke="#A6423F" stroke-width="2"/>
</g>
</g>
</g>
</g>
</g>
</g>
</svg>
