<?xml version="1.0" encoding="UTF-8"?>
<svg version="1.1" viewBox="0 0 91 70" xmlns="http://www.w3.org/2000/svg" xmlns:xlink="http://www.w3.org/1999/xlink">
<title>ic_save</title>
<desc>Created with Sketch.</desc>
<defs>
<polygon id="c" points="0.14339 0.05184 70.308 0.05184 70.308 25.276 0.14339 25.276"/>
<polygon id="b" points="0 69.388 90.468 69.388 90.468 0.32 0 0.32"/>
</defs>
<g fill="none" fill-rule="evenodd">
<g transform="translate(-114 -3310)">
<g transform="translate(112 3040)">
<g transform="translate(0 266)">
<g transform="translate(48 48) scale(-1 1) translate(-48 -48)" fill="#fff" fill-opacity="0" opacity=".8">
<rect width="96" height="96"/>
</g>
<g transform="translate(2 4)">
<g transform="translate(20.16 .26816)">
<mask id="d" fill="white">
<use xlink:href="#c"/>
</mask>
<path d="m37.681 0.81133c-1.3507-1.0128-3.5606-1.0128-4.9114 3.2e-4l-32.627 24.465h70.165l-32.627-24.465z" fill="#6E83FF" mask="url(#d)"/>
</g>
<mask id="a" fill="white">
<use xlink:href="#b"/>
</mask>
<polygon points="20.303 69.388 90.468 69.388 90.468 25.544 20.303 25.544" fill="#6E83FF" mask="url(#a)"/>
<polygon points="29.536 49.625 81.236 49.625 81.236 10.85 29.536 10.85" fill="#E6EDFF" mask="url(#a)"/>
<path d="m58.695 26.048c-0.33824-0.0992-0.91296-0.2336-1.6883-0.2336-2.9728 0-5.3712 2.8022-5.3712 6.0774 0 1.488 0.74272 2.5686 2.2304 2.5686 1.9581 0 3.7485-2.4995 4.1197-4.5952l0.70944-3.8173zm1.8563 14.592c-1.8563 0.97888-3.7482 1.3501-6.0115 1.3501-5.5386 0-10.233-4.0509-10.233-10.535 0-6.9578 4.8291-12.969 12.328-12.969 5.8771 0 9.8288 4.1194 9.8288 9.76 0 5.0656-2.8381 8.0381-6.0115 8.0381-1.353 0-2.6016-0.91264-2.4998-2.9725h-0.13472c-1.1827 1.9939-2.7363 2.9725-4.7632 2.9725-1.9581 0-3.6464-1.5891-3.6464-4.2566 0-4.1885 3.3082-8.0029 8.0026-8.0029 1.4518 0 2.7363 0.3024 3.6134 0.70976l-1.1469 6.1104c-0.50592 2.5686-0.10144 3.751 1.0122 3.784 1.7245 0.03296 3.6496-2.2634 3.6496-6.1821 0-4.895-2.9402-8.4096-8.176-8.4096-5.5027 0-10.131 4.3587-10.131 11.215 0 5.6403 3.6822 9.1194 8.679 9.1194 1.9248 0 3.7152-0.40736 5.1014-1.1827l0.53888 1.4522z" fill="#fff" mask="url(#a)"/>
<path d="m20.304 69.388v-43.844l2.6314 1.3158s31.585 23.224 32.451 23.237c0.91392 0.01408 32.451-23.237 32.451-23.237l2.6314-1.3158v43.844h-70.165z" fill="#B8C6FF" mask="url(#a)"/>
<path d="m57.841 44.923c-1.3507-1.0125-3.5606-1.0125-4.9114 0l-32.627 24.465h70.165l-32.627-24.465z" fill="#6E83FF" mask="url(#a)"/>
<path d="m26.124 49.248h-19.396c-0.38976 0-0.70528-0.31552-0.70528-0.70528v-1.0371c0-0.38944 0.31552-0.70528 0.70528-0.70528h19.396c0.38944 0 0.70496 0.31584 0.70496 0.70528v1.0371c0 0.38976-0.31552 0.70528-0.70496 0.70528" fill="#F9C533" mask="url(#a)"/>
<path d="m20.101 44.438h-19.396c-0.38944 0-0.70496-0.31552-0.70496-0.70496v-1.0371c0-0.38976 0.31552-0.70528 0.70496-0.70528h19.396c0.38944 0 0.70528 0.31552 0.70528 0.70528v1.0371c0 0.38944-0.31584 0.70496-0.70528 0.70496" fill="#F9C533" mask="url(#a)"/>
<path d="m26.124 39.628h-19.396c-0.38976 0-0.70528-0.31552-0.70528-0.70528v-1.0371c0-0.38944 0.31552-0.70528 0.70528-0.70528h19.396c0.38944 0 0.70496 0.31584 0.70496 0.70528v1.0371c0 0.38976-0.31552 0.70528-0.70496 0.70528" fill="#F9C533" mask="url(#a)"/>
</g>
</g>
</g>
</g>
</g>
</svg>
