<?xml version="1.0" encoding="UTF-8"?>
<svg width="239px" height="32px" viewBox="0 0 239 32" version="1.1" xmlns="http://www.w3.org/2000/svg" xmlns:xlink="http://www.w3.org/1999/xlink">
    <!-- Generator: Sketch 63.1 (92452) - https://sketch.com -->
    <title>Ratings</title>
    <desc>Created with Sketch.</desc>
    <g id="Bike" stroke="none" stroke-width="1" fill="none" fill-rule="evenodd">
        <g id="Ratings">
            <g id="sc-f" fill="#3B5998">
                <path d="M32,16 C32,24.2823529 25.6941176,31.0588235 17.6,31.9058824 L17.6,22.0235294 L21.2705882,22.0235294 L22.2117647,17.5058824 L17.6,17.5058824 L17.6,15.7176471 C17.6,13.9294118 18.5411765,12.9882353 20.3294118,12.9882353 L22.1176471,12.9882353 L22.1176471,8.47058824 L18.4470588,8.47058824 C15.0588235,8.47058824 12.9882353,11.1058824 12.9882353,14.7764706 L12.9882353,17.5058824 L9.41176471,17.5058824 L9.41176471,22.0235294 L13.0823529,22.0235294 L13.0823529,31.7176471 C5.64705882,30.3058824 0,23.8117647 0,16 C0,7.15294118 7.15294118,0 16,0 C24.8470588,0 32,7.15294118 32,16 Z" id="Path"></path>
            </g>
            <text id="4.6/5" opacity="0.800000012" font-family="AvenirNext-Medium, Avenir Next" font-size="14" font-weight="400" fill="#000000">
                <tspan x="36" y="14">4.6/5 </tspan>
            </text>
            <text id="4.2/5" opacity="0.800000012" font-family="AvenirNext-Medium, Avenir Next" font-size="14" font-weight="400" fill="#000000">
                <tspan x="164" y="14">4.2/5</tspan>
            </text>
            <g id="sc-g" transform="translate(128.000000, 0.000000)" fill-rule="nonzero">
                <path d="M7.091875,19.338 L5.978,23.49625 L1.9068125,23.582375 C0.690125,21.3256875 0,18.74375 0,16 C0,13.3468125 0.64525,10.8448125 1.789,8.64175 L1.789875,8.64175 L5.414375,9.30625 L7.002125,12.909 C6.6698125,13.8778125 6.4886875,14.9178125 6.4886875,16 C6.4888125,17.1745 6.7015625,18.2998125 7.091875,19.338 Z" id="Path" fill="#FBBB00"></path>
                <path d="M31.7204375,13.011 C31.9041875,13.978875 32,14.9784375 32,16 C32,17.1455 31.8795625,18.262875 31.650125,19.3406875 C30.87125,23.008375 28.8360625,26.211 26.01675,28.477375 L26.015875,28.4765 L21.450625,28.2435625 L20.8045,24.210125 C22.67525,23.113 24.13725,21.3960625 24.907375,19.3406875 L16.35175,19.3406875 L16.35175,13.011 L31.7204375,13.011 Z" id="Path" fill="#518EF8"></path>
                <path d="M26.0158125,28.4765 L26.0166875,28.477375 C23.27475,30.6813125 19.791625,32 16,32 C9.9068125,32 4.60925,28.5943125 1.9068125,23.5824375 L7.091875,19.3380625 C8.4430625,22.9441875 11.92175,25.51125 16,25.51125 C17.7529375,25.51125 19.3951875,25.037375 20.804375,24.210125 L26.0158125,28.4765 Z" id="Path" fill="#28B446"></path>
                <path d="M26.21275,3.6835 L21.0294375,7.927 C19.571,7.015375 17.847,6.48875 16,6.48875 C11.8294375,6.48875 8.2856875,9.1735625 7.0021875,12.909 L1.789875,8.64175 L1.789,8.64175 C4.451875,3.5076875 9.81625,0 16,0 C19.8821875,0 23.44175,1.382875 26.21275,3.6835 Z" id="Path" fill="#F14336"></path>
            </g>
            <g id="4.6-★" transform="translate(36.000000, 18.000000)" fill="#4A4A4A">
                <g id="ic-star" transform="translate(0.000000, 0.000000)">
                    <g id="ic-star-24px" transform="translate(1.191892, 1.166667)">
                        <polygon id="Shape" fill-rule="nonzero" points="5.95945946 8.9075 9.64240541 11.0833333 8.66505405 6.9825 11.9189189 4.22333333 7.63406757 3.8675 5.95945946 0 4.28485135 3.8675 0 4.22333333 3.25386486 6.9825 2.27651351 11.0833333"></polygon>
                    </g>
                </g>
                <g id="ic-star" transform="translate(15.302703, 0.000000)">
                    <g id="ic-star-24px" transform="translate(1.191892, 1.166667)">
                        <polygon id="Shape" fill-rule="nonzero" points="5.95945946 8.9075 9.64240541 11.0833333 8.66505405 6.9825 11.9189189 4.22333333 7.63406757 3.8675 5.95945946 0 4.28485135 3.8675 0 4.22333333 3.25386486 6.9825 2.27651351 11.0833333"></polygon>
                    </g>
                </g>
                <g id="ic-star" transform="translate(30.605405, 0.000000)">
                    <g id="ic-star-24px" transform="translate(1.191892, 1.166667)">
                        <polygon id="Shape" fill-rule="nonzero" points="5.95945946 8.9075 9.64240541 11.0833333 8.66505405 6.9825 11.9189189 4.22333333 7.63406757 3.8675 5.95945946 0 4.28485135 3.8675 0 4.22333333 3.25386486 6.9825 2.27651351 11.0833333"></polygon>
                    </g>
                </g>
                <g id="ic-star" transform="translate(45.908108, 0.000000)">
                    <g id="ic-star-24px" transform="translate(1.191892, 1.166667)">
                        <polygon id="Shape" fill-rule="nonzero" points="5.95945946 8.9075 9.64240541 11.0833333 8.66505405 6.9825 11.9189189 4.22333333 7.63406757 3.8675 5.95945946 0 4.28485135 3.8675 0 4.22333333 3.25386486 6.9825 2.27651351 11.0833333"></polygon>
                    </g>
                </g>
                <g id="ic-star-half" transform="translate(61.210811, 0.000000)">
                    <g id="ic-star-half-24px" transform="translate(1.191892, 1.166667)">
                        <path d="M11.9189189,4.22333333 L7.63406757,3.86166667 L5.95945946,0 L4.28485135,3.8675 L0,4.22333333 L3.25386486,6.9825 L2.27651351,11.0833333 L5.95945946,8.9075 L9.64240541,11.0833333 L8.67101351,6.9825 L11.9189189,4.22333333 Z M5.95945946,7.81666667 L5.95945946,2.39166667 L6.97852703,4.74833333 L9.58877027,4.97 L7.61022973,6.65 L8.20617568,9.14666667 L5.95945946,7.81666667 Z" id="Shape" fill-rule="nonzero"></path>
                    </g>
                </g>
            </g>
            <g id="4.6-★" transform="translate(164.000000, 18.000000)" fill="#4A4A4A">
                <g id="ic-star" transform="translate(0.000000, 0.000000)">
                    <g id="ic-star-24px" transform="translate(1.191892, 1.166667)">
                        <polygon id="Shape" fill-rule="nonzero" points="5.95945946 8.9075 9.64240541 11.0833333 8.66505405 6.9825 11.9189189 4.22333333 7.63406757 3.8675 5.95945946 0 4.28485135 3.8675 0 4.22333333 3.25386486 6.9825 2.27651351 11.0833333"></polygon>
                    </g>
                </g>
                <g id="ic-star" transform="translate(15.302703, 0.000000)">
                    <g id="ic-star-24px" transform="translate(1.191892, 1.166667)">
                        <polygon id="Shape" fill-rule="nonzero" points="5.95945946 8.9075 9.64240541 11.0833333 8.66505405 6.9825 11.9189189 4.22333333 7.63406757 3.8675 5.95945946 0 4.28485135 3.8675 0 4.22333333 3.25386486 6.9825 2.27651351 11.0833333"></polygon>
                    </g>
                </g>
                <g id="ic-star" transform="translate(30.605405, 0.000000)">
                    <g id="ic-star-24px" transform="translate(1.191892, 1.166667)">
                        <polygon id="Shape" fill-rule="nonzero" points="5.95945946 8.9075 9.64240541 11.0833333 8.66505405 6.9825 11.9189189 4.22333333 7.63406757 3.8675 5.95945946 0 4.28485135 3.8675 0 4.22333333 3.25386486 6.9825 2.27651351 11.0833333"></polygon>
                    </g>
                </g>
                <g id="ic-star" transform="translate(45.908108, 0.000000)">
                    <g id="ic-star-24px" transform="translate(1.191892, 1.166667)">
                        <polygon id="Shape" fill-rule="nonzero" points="5.95945946 8.9075 9.64240541 11.0833333 8.66505405 6.9825 11.9189189 4.22333333 7.63406757 3.8675 5.95945946 0 4.28485135 3.8675 0 4.22333333 3.25386486 6.9825 2.27651351 11.0833333"></polygon>
                    </g>
                </g>
                <g id="ic-star-half" transform="translate(61.210811, 0.000000)">
                    <g id="ic-star-half-24px" transform="translate(1.191892, 1.166667)">
                        <path d="M11.9189189,4.22333333 L7.63406757,3.86166667 L5.95945946,0 L4.28485135,3.8675 L0,4.22333333 L3.25386486,6.9825 L2.27651351,11.0833333 L5.95945946,8.9075 L9.64240541,11.0833333 L8.67101351,6.9825 L11.9189189,4.22333333 Z M5.95945946,7.81666667 L5.95945946,2.39166667 L6.97852703,4.74833333 L9.58877027,4.97 L7.61022973,6.65 L8.20617568,9.14666667 L5.95945946,7.81666667 Z" id="Shape" fill-rule="nonzero"></path>
                    </g>
                </g>
            </g>
        </g>
    </g>
</svg>