<svg xmlns="http://www.w3.org/2000/svg" xmlns:xlink="http://www.w3.org/1999/xlink" width="82" height="84" xmlns:v="https://vecta.io/nano"><defs><path id="A" d="M.064.165h51.44V51.6H.064z"/><path id="B" d="M0 .156h45.253v59.177H0z"/></defs><g fill="none" fill-rule="evenodd"><g transform="translate(30.3 32.244)"><mask id="C" fill="#fff"><use xlink:href="#A"/></mask><path d="M30.27 30.366a15.58 15.58 0 0 1-11.052 4.613c-2.698 0-5.43-.714-7.884-2.14l-.192-.14-.752-.48a20.61 20.61 0 0 1-.984-.715L8.81 31c-.226-.19-.452-.4-.68-.644a15.63 15.63 0 0 1-4.404-8.615c-.487-3.22.017-6.562 1.462-9.416.73-1.514 1.723-2.89 2.942-4.108l1.183-1.08c.4-.33.818-.644 1.288-.94.47-.313 1-.626 1.636-.94 2.524-1.253 5.343-1.793 8.18-1.566l1.236.14c.07.017.157.017.226.017 3.203.557 6.11 2.054 8.39 4.37 2.96 2.942 4.595 6.875 4.595 11.052a15.5 15.5 0 0 1-4.595 11.087M49.972 42.67l-9.85-9.834a1.77 1.77 0 0 0-2.454 0l-1.236 1.218-2.524-2.524c2.872-3.43 4.44-7.728 4.44-12.253a18.97 18.97 0 0 0-5.604-13.506c-2.855-2.89-6.51-4.75-10.547-5.396-.317-.044-.614-.06-.91-.1L20.697.22c-3.464-.26-6.927.4-10.008 1.932-.783.383-1.445.766-2.002 1.15-.54.348-1.062.73-1.6 1.166-.488.4-.975.836-1.427 1.288-1.497 1.497-2.698 3.203-3.585 5.03C.316 14.266-.31 18.356.28 22.3c.644 4.003 2.506 7.64 5.378 10.548l.905.835.62.5c.682.57 1.334 1.03 1.997 1.423l.115.086a19.13 19.13 0 0 0 9.921 2.768c4.386 0 8.72-1.532 12.236-4.456l2.524 2.524-1.235 1.236c-.33.314-.505.766-.505 1.22a1.72 1.72 0 0 0 .505 1.235l9.85 9.85c.992.975 2.297 1.532 3.7 1.532s2.698-.557 3.7-1.532a5.26 5.26 0 0 0 1.532-3.707 5.25 5.25 0 0 0-1.532-3.69" fill="#f9c533" mask="url(#C)"/></g><g transform="translate(0 .144)"><mask id="D" fill="#fff"><use xlink:href="#B"/></mask><path d="M45.253 5.377v-3.48c0-.975-.783-1.74-1.74-1.74H1.74C.783.156 0 .92 0 1.896v55.696c0 .957.783 1.74 1.74 1.74h3.48V10.6a5.23 5.23 0 0 1 5.222-5.222h34.8z" fill="#b8c6ff" mask="url(#D)"/></g><path d="M20.886 31.62H31.33a1.74 1.74 0 1 1 0 3.481H20.886a1.74 1.74 0 1 1 0-3.481m0-10.443H38.29a1.74 1.74 0 1 1 0 3.481H20.886a1.74 1.74 0 1 1 0-3.481m6.44 34.82h-6.44a1.74 1.74 0 1 1 0-3.481h6.033c-.09-2.364.18-4.718.795-6.962h-6.828a1.74 1.74 0 1 1 0-3.481h8.102l.28-.612c1.05-2.164 2.482-4.173 4.232-5.922.53-.532 1.105-1.047 1.68-1.518.673-.544 1.293-.994 1.92-1.4.635-.437 1.457-.9 2.362-1.352 3.073-1.528 6.56-2.34 10.065-2.34a22.76 22.76 0 0 1 1.732.065c.453.04.88.092 1.292.145h.267l.6.11.16.02.014.012c.124.023.243.057.366.082V10.743c0-.957-.783-1.74-1.74-1.74H10.443c-.957 0-1.74.783-1.74 1.74V66.44c0 .957.783 1.74 1.74 1.74H34.18l-.608-.566c-3.252-3.287-5.363-7.266-6.245-11.618" fill="#6e83ff"/></g></svg>