<?xml version="1.0" encoding="UTF-8"?>
<svg width="20px" height="18px" viewBox="0 0 20 18" version="1.1" xmlns="http://www.w3.org/2000/svg" xmlns:xlink="http://www.w3.org/1999/xlink">
    <!-- Generator: Sketch 63.1 (92452) - https://sketch.com -->
    <title>noun_virus_3244393</title>
    <desc>Created with Sketch.</desc>
    <g id="Health" stroke="none" stroke-width="1" fill="none" fill-rule="evenodd">
        <path d="M17.176493,2.0001696 C16.6726336,1.99372465 16.2349058,2.170961 15.8633095,2.53187866 L6.93555065,11.3872513 L4.22415723,8.2840039 C3.87775389,7.90375137 3.45262252,7.70073518 2.94876312,7.67495535 C2.43860547,7.64273056 1.99457937,7.80385451 1.61668482,8.15832722 C1.23249202,8.50635496 1.02779914,8.93816717 1.00260617,9.45376383 C0.977413199,9.97580545 1.13486926,10.4333975 1.47497436,10.8265399 L5.47120926,15.3799029 C5.69164775,15.6377013 5.9656213,15.8149376 6.29312991,15.911612 C6.61434028,16.0147313 6.94184889,16.0276212 7.27565575,15.9502818 C7.60316436,15.8729423 7.88658528,15.7118183 8.12591849,15.4669099 L18.4424398,5.24842857 C18.8077379,4.87462099 18.993536,4.42991887 19,3.91432221 C19.0061325,3.39872555 18.8329308,2.95080095 18.4802292,2.57054841 C18.1275277,2.19029587 17.6929489,2.0001696 17.176493,2.0001696 Z" id="Shape-Copy-22" fill="#6B7AFE" fill-rule="nonzero"></path>
    </g>
</svg>